<svg width="200" height="200" viewBox="0 0 200 200" fill="none" xmlns="http://www.w3.org/2000/svg">
<line x1="16.5" y1="2.18557e-08" x2="16.5" y2="200" stroke="white" stroke-opacity="0.02"/>
<line x1="31.7727" y1="2.18557e-08" x2="31.7727" y2="200" stroke="white" stroke-opacity="0.02"/>
<line x1="47.0454" y1="2.18557e-08" x2="47.0454" y2="200" stroke="white" stroke-opacity="0.02"/>
<line x1="62.3182" y1="2.18557e-08" x2="62.3182" y2="200" stroke="white" stroke-opacity="0.02"/>
<line x1="77.5909" y1="2.18557e-08" x2="77.5909" y2="200" stroke="white" stroke-opacity="0.02"/>
<line x1="92.8636" y1="2.18557e-08" x2="92.8636" y2="200" stroke="white" stroke-opacity="0.02"/>
<line x1="108.136" y1="2.18557e-08" x2="108.136" y2="200" stroke="white" stroke-opacity="0.02"/>
<line x1="123.409" y1="2.18557e-08" x2="123.409" y2="200" stroke="white" stroke-opacity="0.02"/>
<line x1="138.682" y1="2.18557e-08" x2="138.682" y2="200" stroke="white" stroke-opacity="0.02"/>
<line x1="153.955" y1="2.18557e-08" x2="153.955" y2="200" stroke="white" stroke-opacity="0.02"/>
<line x1="169.227" y1="2.18557e-08" x2="169.227" y2="200" stroke="white" stroke-opacity="0.02"/>
<line x1="184.5" y1="2.18557e-08" x2="184.5" y2="200" stroke="white" stroke-opacity="0.02"/>
<line y1="11.5" x2="200" y2="11.5" stroke="white" stroke-opacity="0.02"/>
<line y1="27.5" x2="200" y2="27.5" stroke="white" stroke-opacity="0.02"/>
<line y1="43.5" x2="200" y2="43.5" stroke="white" stroke-opacity="0.02"/>
<line y1="59.5" x2="200" y2="59.5" stroke="white" stroke-opacity="0.02"/>
<line y1="75.5" x2="200" y2="75.5" stroke="white" stroke-opacity="0.02"/>
<line y1="91.5" x2="200" y2="91.5" stroke="white" stroke-opacity="0.02"/>
<line y1="107.5" x2="200" y2="107.5" stroke="white" stroke-opacity="0.02"/>
<line y1="123.5" x2="200" y2="123.5" stroke="white" stroke-opacity="0.02"/>
<line y1="139.5" x2="200" y2="139.5" stroke="white" stroke-opacity="0.02"/>
<line y1="155.5" x2="200" y2="155.5" stroke="white" stroke-opacity="0.02"/>
<line y1="171.5" x2="200" y2="171.5" stroke="white" stroke-opacity="0.02"/>
<line y1="187.5" x2="200" y2="187.5" stroke="white" stroke-opacity="0.02"/>
</svg>
